Coordinates
version=1
nRows=33
nColumns=33
inDegrees=yes

Units are S.I. units (second, meters, Newtons, ...)
Angles are in degrees.

endheader
time	ground_thorax_rot_x	ground_thorax_rot_y	ground_thorax_rot_z	ground_thorax_tx	ground_thorax_ty	ground_thorax_tz	clav_prot_r	clav_elev_r	scapula_abduction_r	scapula_elevation_r	scapula_upward_rot_r	scapula_winging_r	shoulder_elv_r	plane_of_elev_r	axial_rot_r	elbow_flexion_r	pro_sup_r	wrist_flex_r	wrist_dev_r	clav_prot_l	clav_elev_l	scapula_abduction_l	scapula_elevation_l	scapula_upward_rot_l	scapula_winging_l	shoulder_elv_l	plane_of_elev_l	axial_rot_l	elbow_flexion_l	pro_sup_l	wrist_flex_l	wrist_dev_l	
3.1500	-0.753440	10.825708	1.134320	-0.186185	1.001978	0.011028	-19.370679	-12.386066	-26.112783	-7.340468	6.095143	4.560023	56.424754	-40.347681	41.176329	86.148446	8.638065	6.486381	5.907256	-0.451172	-3.944779	-1.726444	-4.260338	-4.816096	-0.143368	50.778713	-32.158296	-14.613474	85.880966	13.078719	8.477335	-4.747438	
3.1600	-0.814430	10.882758	1.223013	-0.186385	1.001915	0.010926	-19.293724	-12.580780	-26.071363	-7.441975	5.876887	4.707287	55.758982	-39.484806	39.924523	85.376335	8.215041	5.505919	6.948821	-0.305148	-4.137696	-1.921363	-4.197020	-5.090033	-0.167359	51.032192	-30.948845	-14.340292	85.320943	12.612219	9.509475	-3.586032	
3.1700	-0.872573	10.929901	1.304618	-0.186573	1.001843	0.010828	-19.210280	-12.785788	-26.016885	-7.553357	5.659882	4.859895	55.090239	-38.581511	38.684926	84.505108	7.854668	4.552163	7.982328	-0.147962	-4.349179	-2.124324	-4.133739	-5.404915	-0.198641	51.309819	-29.696139	-14.050586	84.657651	12.152078	10.519688	-2.455160	
3.1800	-0.931927	10.967162	1.389139	-0.186750	1.001753	0.010739	-19.117809	-12.992634	-25.949055	-7.665190	5.439953	5.014793	54.415803	-37.639306	37.458598	83.536535	7.547144	3.610468	9.027749	0.022131	-4.570502	-2.336865	-4.078221	-5.759989	-0.234594	51.616100	-28.407797	-13.754007	83.894035	11.691504	11.527257	-1.342003	
3.1900	-0.980023	10.993799	1.460253	-0.186904	1.001667	0.010648	-19.019526	-13.214277	-25.863648	-7.794456	5.230541	5.175486	53.761973	-36.666801	36.272557	82.471176	7.317488	2.718187	10.041630	0.201077	-4.814924	-2.560229	-4.012587	-6.141249	-0.275358	51.930055	-27.092207	-13.445943	83.013767	11.248855	12.490440	-0.298292	
3.2000	-1.022713	11.007630	1.529363	-0.187041	1.001579	0.010561	-18.911297	-13.444570	-25.758018	-7.933563	5.026553	5.340420	53.124423	-35.669221	35.127676	81.312014	7.147338	1.861030	11.037744	0.391189	-5.071551	-2.800359	-3.941865	-6.536660	-0.315210	52.247904	-25.768192	-13.136316	82.021143	10.821468	13.426173	0.689708	
3.2100	-1.059549	11.011910	1.593488	-0.187158	1.001484	0.010477	-18.794076	-13.678390	-25.633731	-8.077787	4.828573	5.506247	52.503516	-34.641684	34.020638	80.054412	7.043973	1.048681	12.021278	0.594719	-5.337807	-3.060244	-3.870491	-6.950879	-0.352422	52.573673	-24.429515	-12.825506	80.913786	10.401494	14.342865	1.612044	
3.2200	-1.087172	11.002888	1.645536	-0.187249	1.001400	0.010392	-18.664940	-13.927967	-25.482367	-8.240416	4.641265	5.679304	51.911482	-33.600293	32.967442	78.703041	6.995395	0.291312	12.960559	0.810624	-5.619274	-3.347120	-3.782581	-7.358173	-0.383031	52.887321	-23.103778	-12.514725	79.695638	10.004026	15.217078	2.460861	
3.2300	-1.113861	10.989762	1.690935	-0.187325	1.001289	0.010309	-18.523133	-14.171080	-25.310193	-8.397026	4.455510	5.848822	51.326633	-32.526707	31.937295	77.248891	6.991584	-0.426015	13.902994	1.046154	-5.899163	-3.665509	-3.701025	-7.776068	-0.403232	53.214152	-21.767221	-12.216590	78.376486	9.600546	16.097121	3.258193	
3.2400	-1.130528	10.964240	1.720526	-0.187373	1.001192	0.010227	-18.367999	-14.430469	-25.107502	-8.573275	4.282598	6.025253	50.771674	-31.447701	30.961357	75.702346	7.027821	-1.077959	14.789151	1.297208	-6.193523	-4.019037	-3.599601	-8.177198	-0.412705	53.526462	-20.456178	-11.925867	76.952809	9.219109	16.931223	3.985399	
3.2500	-1.145601	10.934555	1.744327	-0.187400	1.001084	0.010155	-18.199892	-14.685736	-24.882872	-8.746318	4.112474	6.199435	50.224263	-30.350461	30.009137	74.058111	7.091129	-1.682413	15.660690	1.568477	-6.487823	-4.407879	-3.498320	-8.577381	-0.409595	53.846954	-19.152871	-11.654362	75.433976	8.837429	17.760496	4.668152	
3.2600	-1.149210	10.895968	1.761634	-0.187395	1.000994	0.010088	-18.021019	-14.949796	-24.630797	-8.933277	3.958902	6.375134	49.705631	-29.257254	29.114788	72.323862	7.183379	-2.204578	16.469323	1.857050	-6.792051	-4.834880	-3.380791	-8.959235	-0.392441	54.145602	-17.882302	-11.394187	73.813622	8.478206	18.539825	5.276259	
3.2700	-1.151377	10.857760	1.783541	-0.187367	1.000887	0.010032	-17.830886	-15.201201	-24.358784	-9.110260	3.811698	6.542786	49.193687	-28.155214	28.250321	70.498051	7.292262	-2.673550	17.262448	2.167518	-7.088382	-5.299882	-3.269199	-9.336569	-0.358458	54.446118	-16.624758	-11.162882	72.107495	8.124323	19.312286	5.839545	
3.2800	-1.143477	10.814875	1.800082	-0.187307	1.000797	0.009982	-17.629922	-15.459604	-24.058844	-9.300201	3.682775	6.710902	48.711012	-27.065656	27.445683	68.590728	7.421540	-3.070551	17.988241	2.494950	-7.390743	-5.802732	-3.141766	-9.688009	-0.308348	54.724110	-15.404137	-10.956337	70.319757	7.807324	20.028167	6.337304	
3.2900	-1.132973	10.771332	1.815006	-0.187217	1.000706	0.009948	-17.418499	-15.714608	-23.736527	-9.490861	3.565337	6.875131	48.242384	-25.979822	26.684546	66.604307	7.564387	-3.409213	18.664549	2.839869	-7.690077	-6.341901	-3.007041	-10.014160	-0.240382	54.991599	-14.213841	-10.786023	68.459724	7.527118	20.702353	6.778766	
3.3000	-1.117258	10.728652	1.829019	-0.187102	1.000612	0.009922	-17.196930	-15.964953	-23.388757	-9.683387	3.466276	7.032898	47.794129	-24.901217	25.980372	64.541200	7.723502	-3.682501	19.283765	3.203465	-7.983975	-6.919502	-2.866964	-10.314329	-0.152281	55.242582	-13.052913	-10.655943	66.536554	7.292180	21.325882	7.154700	
3.3100	-1.099606	10.685422	1.853810	-0.186965	1.000524	0.009906	-16.963216	-16.214904	-23.011949	-9.881595	3.385129	7.186613	47.372010	-23.849578	25.353321	62.415632	7.899772	-3.899873	19.830875	3.582375	-8.274280	-7.532184	-2.715603	-10.578566	-0.044565	55.473322	-11.943556	-10.584833	64.563013	7.121493	21.882106	7.462821	
3.3200	-1.075927	10.642341	1.866164	-0.186805	1.000439	0.009895	-16.719562	-16.467215	-22.606702	-10.090088	3.327193	7.336783	46.974444	-22.807601	24.789708	60.224009	8.092447	-4.057872	20.300102	3.975968	-8.560600	-8.180493	-2.550549	-10.800305	0.084376	55.679551	-10.868035	-10.562786	62.542292	7.020201	22.364370	7.694687	
3.3300	-1.052327	10.605962	1.885526	-0.186629	1.000339	0.009901	-16.474882	-16.696060	-22.192319	-10.282971	3.288641	7.468591	46.572434	-21.756493	24.271286	57.957724	8.302861	-4.133251	20.712162	4.390149	-8.825384	-8.867880	-2.396074	-10.998949	0.240199	55.863312	-9.805599	-10.579555	60.462990	6.981129	22.789904	7.829319	
3.3400	-1.028369	10.580783	1.901404	-0.186446	1.000204	0.009919	-16.229509	-16.896617	-21.768678	-10.456598	3.272040	7.578861	46.163618	-20.685078	23.789317	55.623249	8.537335	-4.138188	21.089253	4.830403	-9.062876	-9.598686	-2.263169	-11.187939	0.425102	56.040166	-8.732505	-10.636817	58.337707	6.990086	23.182304	7.878173	
3.3500	-1.006000	10.570055	1.934775	-0.186251	1.000054	0.009949	-15.990768	-17.069141	-21.348094	-10.611213	3.276797	7.668012	45.745863	-19.614592	23.355868	53.231587	8.805589	-4.063505	21.412427	5.296534	-9.275709	-10.371713	-2.151365	-11.371989	0.638547	56.201991	-7.665145	-10.735201	56.169761	7.061694	23.525016	7.823948	
3.3600	-0.981294	10.565589	1.959984	-0.186033	0.999922	0.009984	-15.750251	-17.247423	-20.913171	-10.779073	3.302832	7.756277	45.347180	-18.571991	22.984796	50.816207	9.103836	-3.953638	21.660811	5.777514	-9.485496	-11.175911	-2.030187	-11.526149	0.871906	56.347838	-6.629998	-10.887323	53.987410	7.201680	23.804624	7.699328	
3.3700	-0.957462	10.571596	1.985088	-0.185791	0.999802	0.010028	-15.514932	-17.417529	-20.478103	-10.946266	3.347907	7.836350	44.951967	-17.547738	22.660965	48.379021	9.427438	-3.795956	21.838398	6.273769	-9.682500	-12.009877	-1.910430	-11.655059	1.127658	56.474280	-5.617502	-11.086483	51.786083	7.401509	24.031267	7.489706	
3.3800	-0.930742	10.576337	2.007156	-0.185512	0.999735	0.010066	-15.272657	-17.613172	-20.020164	-11.144154	3.410212	7.928460	44.599392	-16.593292	22.421385	45.967551	9.769569	-3.644836	21.923386	6.770295	-9.889700	-12.855076	-1.761293	-11.736023	1.393164	56.572374	-4.675983	-11.352341	49.601066	7.664161	24.192429	7.240214	
3.3900	-0.905629	10.594750	2.027865	-0.185206	0.999672	0.010106	-15.044588	-17.791650	-19.575091	-11.334704	3.496612	8.006305	44.238066	-15.650307	22.224450	43.548357	10.133391	-3.422340	21.904094	7.282303	-10.070991	-13.733882	-1.619827	-11.779063	1.689959	56.627621	-3.752358	-11.656799	47.400970	7.991579	24.290521	6.859598	
3.4000	-0.881035	10.617669	2.043972	-0.184869	0.999635	0.010148	-14.822679	-17.971415	-19.131731	-11.532647	3.599325	8.082290	43.888489	-14.745914	22.081506	41.164555	10.512825	-3.176181	21.794142	7.799588	-10.239274	-14.630201	-1.472409	-11.779999	2.007799	56.642200	-2.869031	-11.998390	45.210377	8.368482	24.341788	6.401530	
3.4100	-0.856702	10.664252	2.022293	-0.184504	0.999570	0.010202	-14.631256	-18.115029	-18.730969	-11.705316	3.725121	8.134499	43.502619	-13.796988	21.919971	38.785139	10.920594	-2.840825	21.597747	8.340578	-10.361752	-15.570661	-1.354944	-11.752827	2.367805	56.618518	-1.941408	-12.326250	42.994940	8.782394	24.368330	5.798605	
3.4200	-0.832989	10.720175	1.979820	-0.184105	0.999527	0.010262	-14.453544	-18.261278	-18.347773	-11.884962	3.861280	8.188499	43.133733	-12.882374	21.792489	36.488138	11.360638	-2.505296	21.334158	8.889033	-10.467175	-16.529176	-1.239812	-11.694350	2.749834	56.567780	-1.034996	-12.661208	40.807305	9.219266	24.383651	5.153894	
3.4300	-0.809191	10.794582	1.895885	-0.183682	0.999479	0.010328	-14.302317	-18.394058	-18.003004	-12.057996	4.011770	8.234911	42.760835	-11.959078	21.659375	34.261082	11.841667	-2.135940	21.004915	9.451749	-10.538598	-17.515691	-1.144839	-11.610407	3.163233	56.491977	-0.106477	-12.974536	38.639719	9.669146	24.392762	4.436719	
3.4400	-0.788482	10.873266	1.807706	-0.183224	0.999476	0.010393	-14.163696	-18.542659	-17.680722	-12.245388	4.157300	8.294479	42.425826	-11.105997	21.561062	32.169212	12.363155	-1.809216	20.626726	10.006715	-10.599747	-18.493418	-1.048240	-11.501642	3.584839	56.388447	0.775734	-13.277932	36.537386	10.107465	24.401519	3.741138	
3.4500	-0.769948	10.958983	1.694390	-0.182741	0.999504	0.010459	-14.044812	-18.699290	-17.392664	-12.440673	4.299746	8.362938	42.115957	-10.290993	21.460079	30.205074	12.919085	-1.505134	20.206256	10.552825	-10.642457	-19.460675	-0.957336	-11.368161	4.016141	56.260710	1.639368	-13.543614	34.499680	10.525501	24.404096	3.055583	
3.4600	-0.756096	11.041368	1.592548	-0.182234	0.999584	0.010521	-13.936752	-18.870655	-17.129576	-12.645628	4.426959	8.445629	41.848470	-9.559781	21.375759	28.399586	13.491642	-1.259251	19.777215	11.073508	-10.678945	-20.385462	-0.867344	-11.225254	4.437243	56.111712	2.443086	-13.772850	32.561445	10.906107	24.403654	2.438727	
3.4700	-0.751238	11.130220	1.506380	-0.181723	0.999676	0.010584	-13.852780	-19.027380	-16.914921	-12.833393	4.541622	8.524310	41.588092	-8.872444	21.266628	26.723817	14.076899	-1.016687	19.343441	11.578217	-10.684403	-21.280032	-0.806831	-11.087969	4.860507	55.938223	3.225553	-13.932213	30.708211	11.247533	24.391233	1.835373	
